<svg width="18" height="18" viewBox="0 0 18 18" fill="none" xmlns="http://www.w3.org/2000/svg">
<path fill-rule="evenodd" clip-rule="evenodd" d="M0.954125 0.649047C1.07852 0.540991 1.23215 0.472235 1.3956 0.451469C1.55906 0.430704 1.725 0.45886 1.87246 0.53238L16.8725 8.03238C17.0111 8.10149 17.1278 8.2079 17.2093 8.33965C17.2909 8.4714 17.3341 8.62327 17.3341 8.77821C17.3341 8.93315 17.2909 9.08503 17.2093 9.21678C17.1278 9.34853 17.0111 9.45493 16.8725 9.52405L1.87246 17.024C1.72501 17.0978 1.55899 17.1262 1.39541 17.1056C1.23183 17.085 1.07804 17.0163 0.953495 16.9083C0.828952 16.8002 0.739255 16.6577 0.695756 16.4987C0.652256 16.3396 0.656909 16.1713 0.709125 16.0149L2.84413 9.61155H7.33329C7.55431 9.61155 7.76627 9.52375 7.92255 9.36747C8.07883 9.21119 8.16663 8.99923 8.16663 8.77821C8.16663 8.5572 8.07883 8.34524 7.92255 8.18896C7.76627 8.03268 7.55431 7.94488 7.33329 7.94488H2.84413L0.708292 1.54155C0.656345 1.38522 0.651893 1.21701 0.6955 1.05816C0.739106 0.899305 0.829648 0.75694 0.954125 0.649047Z" fill="#1C222B" fill-opacity="0.3"/>
</svg>
